<?xml version="1.0" encoding="UTF-8" standalone="no"?>
<!DOCTYPE svg PUBLIC "-//W3C//DTD SVG 1.1//EN" "http://www.w3.org/Graphics/SVG/1.1/DTD/svg11.dtd">
<svg viewBox="0 0 1150 1150" version="1.1" xmlns="http://www.w3.org/2000/svg" xmlns:xlink="http://www.w3.org/1999/xlink">
	<g id="GlooperCB" fill="none" stroke="#000" stroke-width="11" stroke-miterlimit="1.5">
		<title>Glooper—Coloring Book version, by Adam Stanislav</title>

		<path id="RightEar" d="M233.468 325.807c-5.136 19.891-8.578 40.454-10.164 61.532-27.745 23.257-53.817 46.598-76.659 69.264-33.501-42.772-44.706-90.202-24.539-125.132 17.083-29.589 53.191-44.168 96.536-43.298 2.653 13.227 7.709 25.951 14.826 37.634z"/>
		<path id="LeftEar" d="M929.507 292.125c45.138-1.89 82.981 12.661 100.596 43.172 20.025 34.684 9.117 81.694-23.828 124.218-23.538-23.583-50.649-47.925-79.579-72.176-1.638-21.763-5.254-42.978-10.665-63.455 6.057-9.944 10.62-20.642 13.476-31.759z"/>
		<path id="RightTail" d="M191.463 897.492c30.089 29.538 64.48 55.587 102.288 77.367-2.641 69.132-59.879 124.451-130.002 124.451 21.541-30.203 39.03-77.807 39.03-129.443 0-25.668-4.322-50.34-11.316-72.375z"/>
		<path id="LeftTail1" d="M958.537 897.492c-6.994 22.035-11.316 46.707-11.316 72.375 0 51.636 17.489 99.24 39.03 129.443-70.123 0-127.361-55.318-130.002-124.451 37.817-21.787 72.208-47.836 102.288-77.367z"/>
		<path id="Head" d="M823.358 210.737c8.685 14.789 15.909 31.346 20.68 49.153 11.974 44.686 6.635 90.27-6.533 121.814 34.434-9.227 62.023-30.728 78.525-57.819 5.416 20.498 9.029 41.702 10.666 63.454 91.177 76.429 164.279 153.761 164.279 205.252 0 251.669-231.201 455.993-515.975 455.993-284.774 0-515.975-204.324-515.975-455.993 0-51.491 73.102-128.823 164.279-205.252 1.586-21.078 5.028-41.642 10.164-61.533 16.504 27.084 44.089 48.578 78.516 57.803-13.168-31.543-18.507-77.127-6.533-121.813 4.684-17.481 11.731-33.757 20.206-48.341-5.172 70.868 31.691 140.001 98.019 170.968-8.316-49.938-1.575-119.38 28.607-184.027 29.751-63.722 77.697-112.974 120.847-138.975c0.616-0.003 1.243-0.005 1.87-0.005 1.131 0 2.26 0.005 3.399 0.016 42.629 26.321 89.58 75.114 118.843 137.946 30.121 64.675 36.796 134.123 28.434 184.054 66.824-31.123 103.244-101.449 97.682-172.695zm-480.75-61.849l-0.118 0.248c-0.898 1.923-1.76 3.853-2.585 5.789-1.326-0.032-2.648-0.044-3.966-0.036 2.2-2.03 4.425-4.033 6.669-6.001zm464.778-0.004c1.537 1.348 3.072 2.717 4.594 4.099-0.922 0.006-1.845 0.021-2.77 0.046-0.59-1.387-1.198-2.768-1.824-4.145z"/>
		<path id="Nose" d="M575 291.714s-114.08 239.568-114.08 342.24c0 62.962 51.118 114.08 114.08 114.08 62.962 0 114.08-51.118 114.08-114.08 0-102.672-114.08-342.24-114.08-342.24z"/>
		<path id="Eye" d="M454.001 484.313c4.662-8.075 7.116-17.235 7.116-26.559 0-29.316-23.801-53.117-53.117-53.117-29.316 0-53.117 23.801-53.117 53.117 0 9.324 2.454 18.484 7.116 26.559z"/>
		<use xlink:href="#Eye" transform="translate(334)"/>
		<path id="Mouth" d="M575 806.695c-143.34 0-259.54 32.782-259.54 73.22 0 40.412 116.296 73.221 259.54 73.221 143.34 0 259.54-32.782 259.54-73.221h-259.54z"/>
		<path id="RightLock" d="M325.657 213.455c1.431-19.628 6.092-39.4 14.248-58.53c-55.573-1.327-105.819 32.08-119.736 84.02c-16.567 61.825 24.575 126.647 91.815 144.664c-13.168-31.543-18.507-77.127-6.533-121.813c4.684-17.481 11.731-33.757 20.206-48.341z"/>
		<path id="LeftLock" d="M809.21 153.029c7.993 18.785 12.632 38.281 14.148 57.708c8.685 14.789 15.909 31.346 20.68 49.153c11.974 44.686 6.635 90.27-6.533 121.814c67.241-18.018 108.382-82.84 91.815-144.665c-13.946-52.051-64.378-85.49-120.11-84.01z"/>
		<path id="InnerLock" d="M575 60.307c-86.567-40.416-190.751 0.614-232.51 88.829-41.759 89.442-5.381 194.871 81.186 235.287-8.316-49.938-1.575-119.38 28.607-184.027 30.183-64.646 79.092-114.4 122.717-140.089z"/>
		<use xlink:href="#InnerLock" transform="rotate(130,575,257)"/>
	</g>
</svg>
